<svg id="svg" version="1.1" xmlns="http://www.w3.org/2000/svg" xmlns:xlink="http://www.w3.org/1999/xlink" width="400" height="400" viewBox="0, 0, 400,400"><g id="svgg"><path id="path0" d="M188.567 12.908 C 188.087 13.025,186.597 13.104,185.254 13.084 C 183.911 13.064,182.813 13.177,182.813 13.335 C 182.813 13.493,181.929 13.569,180.850 13.505 C 179.770 13.440,178.808 13.515,178.711 13.672 C 178.614 13.829,178.055 13.905,177.470 13.840 C 176.884 13.776,176.220 13.839,175.995 13.980 C 175.385 14.362,174.631 14.478,172.363 14.540 C 171.235 14.571,170.313 14.744,170.313 14.923 C 170.313 15.103,169.888 15.173,169.369 15.079 C 168.850 14.985,168.328 15.006,168.208 15.126 C 168.088 15.246,167.158 15.415,166.142 15.503 C 165.125 15.590,164.094 15.828,163.849 16.030 C 163.605 16.233,163.301 16.296,163.174 16.168 C 163.047 16.041,162.711 16.082,162.428 16.258 C 162.145 16.434,161.387 16.609,160.742 16.646 C 160.098 16.682,159.570 16.745,159.570 16.785 C 159.570 16.893,158.118 17.204,157.166 17.299 C 156.704 17.345,156.407 17.515,156.507 17.677 C 156.606 17.839,156.282 17.905,155.786 17.824 C 155.289 17.744,154.531 17.868,154.102 18.102 C 153.672 18.335,153.170 18.482,152.986 18.429 C 152.802 18.375,152.439 18.509,152.179 18.725 C 151.919 18.941,151.102 19.153,150.365 19.197 C 149.627 19.241,148.540 19.515,147.949 19.805 C 147.358 20.095,146.875 20.219,146.875 20.079 C 146.875 19.940,146.619 20.039,146.306 20.298 C 145.993 20.558,145.527 20.640,145.269 20.481 C 144.952 20.285,144.904 20.358,145.121 20.709 C 145.349 21.078,145.265 21.159,144.829 20.992 C 144.492 20.863,144.097 20.877,143.951 21.023 C 143.805 21.169,143.568 21.303,143.424 21.319 C 141.993 21.486,140.234 22.031,140.234 22.309 C 140.234 22.500,140.103 22.635,139.941 22.610 C 139.780 22.585,139.561 22.598,139.453 22.639 C 139.346 22.680,138.826 22.794,138.298 22.890 C 137.770 22.987,137.243 23.213,137.126 23.392 C 137.010 23.571,136.606 23.670,136.230 23.612 C 135.854 23.554,135.547 23.661,135.547 23.850 C 135.547 24.040,135.283 24.093,134.961 23.969 C 134.639 23.846,134.375 23.950,134.375 24.200 C 134.375 24.451,134.219 24.559,134.029 24.441 C 133.838 24.324,133.474 24.479,133.219 24.786 C 132.964 25.093,132.527 25.257,132.248 25.150 C 131.970 25.043,131.456 25.240,131.108 25.588 C 130.760 25.937,130.298 26.112,130.081 25.978 C 129.865 25.845,129.688 25.932,129.688 26.172 C 129.688 26.412,129.512 26.500,129.297 26.367 C 129.082 26.234,128.906 26.312,128.906 26.539 C 128.906 26.767,128.774 26.917,128.613 26.873 C 128.452 26.829,127.751 27.096,127.055 27.467 C 126.359 27.837,125.700 28.137,125.590 28.133 C 125.480 28.129,125.347 28.138,125.293 28.155 C 125.239 28.171,124.861 28.248,124.453 28.324 C 124.045 28.401,123.589 28.660,123.441 28.901 C 123.292 29.141,123.011 29.294,122.816 29.240 C 122.194 29.068,120.703 29.724,120.703 30.170 C 120.703 30.406,120.586 30.481,120.442 30.338 C 120.298 30.194,119.828 30.384,119.398 30.761 C 118.968 31.137,118.735 31.241,118.880 30.992 C 119.025 30.742,118.440 30.878,117.580 31.294 C 116.719 31.709,116.016 32.232,116.016 32.454 C 116.016 32.677,115.840 32.750,115.625 32.617 C 115.410 32.484,115.234 32.556,115.234 32.777 C 115.234 32.998,114.993 33.086,114.699 32.973 C 114.404 32.860,114.051 33.060,113.914 33.417 C 113.777 33.773,113.417 33.970,113.114 33.854 C 112.810 33.737,112.099 34.071,111.533 34.595 C 110.587 35.472,108.484 36.745,108.012 36.727 C 107.168 36.693,107.015 36.768,107.227 37.109 C 107.444 37.461,106.931 37.669,106.152 37.546 C 105.991 37.521,105.859 37.686,105.859 37.914 C 105.859 38.141,105.690 38.223,105.483 38.095 C 105.276 37.967,104.749 38.220,104.311 38.658 C 103.874 39.095,103.510 39.321,103.503 39.160 C 103.496 38.999,103.233 39.208,102.917 39.625 C 102.602 40.042,102.344 40.229,102.344 40.039 C 102.344 39.850,102.067 40.036,101.729 40.453 C 101.391 40.870,101.224 40.993,101.359 40.727 C 101.519 40.409,101.396 40.323,100.999 40.475 C 100.667 40.603,100.492 40.864,100.611 41.057 C 100.730 41.249,100.621 41.406,100.368 41.406 C 100.116 41.406,99.019 42.060,97.931 42.859 C 96.843 43.657,95.690 44.349,95.369 44.397 C 95.048 44.444,94.629 44.761,94.439 45.101 C 94.248 45.441,93.940 45.625,93.753 45.509 C 93.566 45.394,93.181 45.610,92.898 45.990 C 92.615 46.369,91.714 46.989,90.897 47.367 C 90.080 47.745,89.519 48.228,89.651 48.441 C 89.782 48.654,89.679 48.828,89.422 48.828 C 89.164 48.828,88.753 49.102,88.509 49.436 C 88.265 49.770,87.804 50.082,87.487 50.128 C 86.648 50.252,85.119 51.395,85.407 51.683 C 85.542 51.818,85.103 52.242,84.430 52.625 C 83.758 53.007,83.207 53.452,83.206 53.613 C 83.204 53.774,82.939 53.906,82.617 53.906 C 82.295 53.906,82.031 54.092,82.031 54.320 C 82.031 54.547,81.855 54.625,81.641 54.492 C 81.426 54.359,81.250 54.535,81.250 54.883 C 81.250 55.230,81.073 55.405,80.857 55.272 C 80.640 55.138,80.358 55.303,80.229 55.639 C 80.100 55.975,79.825 56.250,79.618 56.250 C 79.039 56.250,78.127 57.294,78.437 57.603 C 78.587 57.754,78.535 57.824,78.320 57.758 C 77.766 57.589,75.747 59.004,75.988 59.393 C 76.098 59.571,75.725 60.036,75.159 60.425 C 74.593 60.814,73.586 61.660,72.920 62.305 C 72.255 62.949,71.616 63.433,71.500 63.379 C 71.384 63.325,71.289 63.448,71.289 63.652 C 71.289 63.856,71.044 64.252,70.743 64.531 C 70.293 64.951,70.252 64.944,70.511 64.490 C 70.721 64.123,70.675 64.034,70.373 64.221 C 70.125 64.374,69.922 64.721,69.922 64.992 C 69.922 65.585,68.127 67.216,67.816 66.905 C 67.695 66.784,67.470 67.018,67.314 67.425 C 67.159 67.831,66.597 68.604,66.064 69.141 C 65.494 69.716,65.325 69.796,65.653 69.336 C 66.168 68.615,66.158 68.596,65.527 69.091 C 65.151 69.386,64.844 69.879,64.844 70.188 C 64.844 70.497,64.681 70.648,64.481 70.525 C 64.282 70.402,64.006 70.655,63.869 71.088 C 63.732 71.521,63.367 71.875,63.060 71.875 C 62.752 71.875,62.500 72.043,62.500 72.248 C 62.500 72.453,62.017 73.105,61.426 73.698 C 60.835 74.290,60.388 74.892,60.433 75.035 C 60.478 75.178,59.721 75.958,58.751 76.769 C 57.781 77.579,56.642 78.919,56.220 79.746 C 55.798 80.573,55.256 81.250,55.016 81.250 C 54.478 81.250,53.743 82.156,52.711 84.096 C 52.278 84.909,51.750 85.467,51.538 85.336 C 51.326 85.205,51.178 85.243,51.208 85.420 C 51.339 86.174,51.144 86.712,50.771 86.621 C 50.551 86.567,50.068 87.032,49.697 87.654 C 49.327 88.275,48.618 89.200,48.124 89.708 C 47.629 90.216,47.348 90.833,47.500 91.079 C 47.661 91.339,47.605 91.421,47.369 91.275 C 47.144 91.136,46.670 91.636,46.314 92.386 C 45.958 93.136,45.489 93.750,45.271 93.750 C 45.054 93.750,44.985 93.927,45.119 94.143 C 45.253 94.360,45.098 94.638,44.776 94.762 C 44.454 94.885,44.271 95.197,44.369 95.454 C 44.468 95.711,43.950 96.576,43.218 97.375 C 42.486 98.174,41.982 98.828,42.098 98.828 C 42.214 98.828,41.989 99.181,41.599 99.612 C 41.209 100.043,40.698 100.736,40.464 101.150 C 40.230 101.565,39.643 102.542,39.159 103.320 C 38.676 104.098,38.500 104.614,38.769 104.466 C 39.038 104.319,38.780 104.661,38.197 105.227 C 37.584 105.822,37.230 106.501,37.359 106.836 C 37.485 107.164,37.311 107.519,36.957 107.655 C 36.614 107.787,36.415 108.028,36.517 108.192 C 36.618 108.356,36.003 109.485,35.151 110.702 C 34.299 111.919,33.621 113.041,33.644 113.195 C 33.754 113.927,33.561 114.479,33.260 114.293 C 32.860 114.046,31.934 115.933,32.225 116.404 C 32.337 116.585,32.120 117.044,31.742 117.423 C 31.087 118.079,31.009 118.268,30.904 119.457 C 30.879 119.743,30.659 119.844,30.402 119.686 C 30.099 119.498,30.026 119.612,30.184 120.025 C 30.315 120.366,30.169 120.856,29.860 121.113 C 29.550 121.370,29.297 121.889,29.297 122.266 C 29.297 122.643,29.044 123.161,28.734 123.418 C 28.425 123.675,28.268 124.136,28.385 124.443 C 28.503 124.749,28.394 125.000,28.144 125.000 C 27.893 125.000,27.778 125.144,27.887 125.321 C 27.996 125.498,27.830 126.133,27.519 126.733 C 27.208 127.333,26.953 128.078,26.953 128.388 C 26.953 128.719,26.764 128.836,26.496 128.670 C 26.191 128.481,26.120 128.599,26.284 129.025 C 26.418 129.376,26.380 129.754,26.199 129.866 C 26.018 129.978,25.753 130.692,25.610 131.452 C 25.468 132.212,25.186 132.732,24.985 132.608 C 24.783 132.483,24.723 132.654,24.851 132.988 C 24.982 133.330,24.877 133.594,24.609 133.594 C 24.348 133.594,24.236 133.857,24.360 134.180 C 24.484 134.502,24.434 134.766,24.250 134.766 C 24.066 134.766,23.923 134.985,23.933 135.254 C 23.980 136.513,23.794 137.135,23.437 136.914 C 23.215 136.776,23.047 137.115,23.047 137.700 C 23.047 138.265,22.791 138.984,22.478 139.297 C 22.164 139.610,22.001 140.108,22.114 140.403 C 22.227 140.698,21.946 141.673,21.489 142.569 C 21.032 143.466,20.726 144.404,20.809 144.655 C 20.893 144.905,20.743 145.328,20.476 145.595 C 20.210 145.862,20.084 146.435,20.198 146.868 C 20.311 147.302,20.242 147.656,20.046 147.656 C 19.849 147.656,19.666 148.052,19.640 148.535 C 19.614 149.019,19.396 150.117,19.156 150.977 C 18.916 151.836,18.677 152.715,18.626 152.930 C 18.575 153.145,18.395 153.540,18.228 153.809 C 18.060 154.077,18.024 154.461,18.147 154.661 C 18.271 154.861,18.191 155.136,17.969 155.273 C 17.747 155.411,17.671 155.694,17.801 155.903 C 17.930 156.113,17.869 156.496,17.666 156.755 C 17.161 157.398,16.769 159.148,16.558 161.701 C 16.461 162.876,16.215 163.939,16.013 164.064 C 15.810 164.190,15.596 165.118,15.537 166.129 C 15.478 167.139,15.332 167.966,15.212 167.967 C 15.092 167.968,15.031 168.496,15.075 169.141 C 15.120 169.785,15.011 170.313,14.833 170.313 C 14.655 170.313,14.518 170.972,14.528 171.777 C 14.539 172.583,14.407 173.857,14.236 174.609 C 14.065 175.361,13.912 176.707,13.896 177.599 C 13.880 178.492,13.760 179.156,13.629 179.075 C 13.498 178.994,13.435 179.891,13.489 181.068 C 13.544 182.246,13.456 183.290,13.296 183.390 C 13.135 183.489,13.067 184.642,13.146 185.951 C 13.224 187.260,13.155 188.249,12.992 188.148 C 12.829 188.048,12.743 193.178,12.802 199.549 C 12.938 214.385,13.020 216.797,13.384 216.797 C 13.548 216.797,13.578 217.783,13.449 218.989 C 13.321 220.194,13.362 221.090,13.541 220.979 C 13.721 220.869,13.909 221.508,13.961 222.401 C 14.208 226.683,14.890 231.427,15.321 231.858 C 15.453 231.990,15.484 232.522,15.390 233.041 C 15.296 233.560,15.361 233.984,15.534 233.984 C 15.874 233.984,16.071 234.998,16.123 237.012 C 16.141 237.710,16.284 238.281,16.442 238.281 C 16.599 238.281,16.680 238.589,16.622 238.965 C 16.564 239.341,16.661 239.742,16.837 239.857 C 17.012 239.972,17.207 240.807,17.270 241.712 C 17.332 242.617,17.526 243.358,17.702 243.359 C 17.878 243.359,17.910 243.711,17.773 244.141 C 17.621 244.622,17.703 244.922,17.988 244.922 C 18.258 244.922,18.366 245.247,18.246 245.703 C 18.134 246.133,18.212 246.484,18.419 246.484 C 18.626 246.484,18.683 246.668,18.544 246.892 C 18.406 247.116,18.486 247.534,18.723 247.819 C 18.960 248.105,19.051 248.607,18.925 248.934 C 18.800 249.262,18.885 249.646,19.114 249.788 C 19.343 249.930,19.531 250.563,19.531 251.195 C 19.531 251.827,19.718 252.344,19.946 252.344 C 20.175 252.344,20.332 252.651,20.296 253.027 C 20.260 253.403,20.346 254.063,20.487 254.492 C 20.628 254.922,20.719 255.430,20.690 255.620 C 20.660 255.811,20.844 256.096,21.099 256.253 C 21.353 256.410,21.587 257.001,21.620 257.566 C 21.653 258.131,21.841 258.593,22.038 258.593 C 22.235 258.594,22.280 258.709,22.139 258.851 C 21.997 258.992,22.078 259.344,22.317 259.632 C 22.556 259.920,22.621 260.156,22.461 260.156 C 22.301 260.156,22.382 260.412,22.642 260.725 C 22.902 261.038,23.001 261.477,22.862 261.702 C 22.724 261.926,22.777 262.109,22.982 262.109 C 23.187 262.109,23.459 262.382,23.587 262.716 C 23.718 263.059,23.654 263.220,23.437 263.086 C 22.969 262.797,23.371 264.022,24.015 264.844 C 24.267 265.166,24.494 265.845,24.520 266.352 C 24.546 266.860,24.868 267.607,25.235 268.012 C 25.602 268.418,25.766 268.750,25.599 268.750 C 25.432 268.750,25.477 268.970,25.700 269.238 C 25.923 269.507,26.120 269.858,26.139 270.020 C 26.157 270.181,26.185 270.356,26.202 270.410 C 26.218 270.464,26.295 270.845,26.372 271.258 C 26.450 271.671,27.050 273.033,27.707 274.287 C 28.364 275.540,28.881 276.664,28.856 276.785 C 28.785 277.128,30.238 279.867,30.569 280.014 C 30.731 280.086,30.765 280.306,30.643 280.502 C 30.522 280.699,30.619 280.859,30.859 280.859 C 31.100 280.859,31.187 281.035,31.055 281.250 C 30.922 281.465,30.994 281.641,31.215 281.641 C 31.435 281.641,31.504 281.933,31.367 282.291 C 31.210 282.698,31.272 282.845,31.533 282.684 C 31.762 282.542,32.054 282.698,32.181 283.030 C 32.333 283.427,32.247 283.551,31.929 283.390 C 31.663 283.255,31.771 283.410,32.168 283.734 C 32.589 284.077,32.768 284.522,32.596 284.800 C 32.394 285.127,32.464 285.176,32.819 284.957 C 33.189 284.728,33.268 284.813,33.097 285.259 C 32.966 285.601,33.112 286.091,33.422 286.347 C 33.731 286.604,33.984 287.057,33.984 287.353 C 33.984 287.648,34.128 287.891,34.303 287.891 C 34.478 287.891,35.017 288.594,35.500 289.453 C 35.983 290.313,36.275 291.016,36.149 291.016 C 35.886 291.016,37.050 292.909,37.788 293.680 C 38.059 293.964,38.281 294.541,38.281 294.962 C 38.281 295.383,38.544 295.828,38.865 295.952 C 39.186 296.075,39.351 296.333,39.233 296.525 C 39.114 296.718,39.203 296.875,39.430 296.875 C 39.658 296.875,39.844 297.183,39.844 297.560 C 39.844 297.937,40.372 298.743,41.017 299.352 C 41.663 299.962,42.101 300.605,41.991 300.783 C 41.882 300.960,41.956 301.164,42.156 301.236 C 42.356 301.308,42.577 301.631,42.646 301.953 C 42.716 302.275,43.213 302.955,43.750 303.464 C 44.287 303.972,44.463 304.267,44.141 304.118 C 43.763 303.944,43.795 304.046,44.232 304.404 C 44.605 304.710,44.795 305.075,44.655 305.214 C 44.515 305.354,44.635 305.469,44.922 305.469 C 45.208 305.469,45.339 305.573,45.211 305.700 C 45.084 305.827,45.450 306.459,46.025 307.104 C 46.600 307.750,47.085 308.393,47.104 308.533 C 47.209 309.327,47.812 310.156,48.284 310.156 C 48.583 310.156,48.828 310.411,48.828 310.723 C 48.828 311.034,49.136 311.468,49.512 311.687 C 49.888 311.906,50.063 312.091,49.902 312.097 C 49.741 312.104,49.917 312.449,50.293 312.863 C 51.810 314.536,52.924 316.107,52.832 316.442 C 52.778 316.637,52.926 316.753,53.159 316.699 C 53.393 316.646,53.895 317.166,54.274 317.857 C 54.654 318.547,55.511 319.622,56.179 320.247 C 56.848 320.871,57.303 321.473,57.192 321.584 C 57.081 321.695,57.439 322.139,57.987 322.570 C 58.536 323.002,58.984 323.519,58.984 323.721 C 58.984 323.922,59.415 324.317,59.942 324.599 C 60.469 324.881,60.865 325.219,60.821 325.349 C 60.778 325.479,61.094 325.941,61.523 326.376 C 61.953 326.810,62.620 327.601,63.006 328.133 C 63.392 328.666,63.587 328.838,63.438 328.516 C 63.290 328.193,63.897 328.670,64.788 329.575 C 65.678 330.480,66.406 331.413,66.406 331.649 C 66.406 331.884,66.582 331.969,66.797 331.836 C 67.012 331.703,67.188 331.831,67.187 332.119 C 67.187 332.408,67.718 332.957,68.366 333.340 C 69.015 333.723,69.458 334.177,69.352 334.349 C 69.246 334.521,69.547 334.992,70.022 335.397 C 70.874 336.124,70.878 336.123,70.318 335.352 C 69.895 334.769,70.021 334.811,70.813 335.517 C 71.397 336.038,71.875 336.676,71.875 336.934 C 71.875 337.193,72.172 337.646,72.536 337.940 C 73.105 338.402,73.155 338.395,72.897 337.891 C 72.732 337.568,72.985 337.744,73.459 338.281 C 73.934 338.818,74.479 339.212,74.672 339.157 C 74.864 339.101,75.139 339.361,75.282 339.734 C 75.596 340.553,77.305 342.188,77.846 342.188 C 78.206 342.188,78.873 342.759,81.495 345.313 C 82.046 345.850,82.700 346.297,82.948 346.307 C 83.196 346.317,83.358 346.526,83.309 346.771 C 83.259 347.017,83.551 347.323,83.956 347.452 C 84.362 347.581,84.796 347.954,84.922 348.282 C 85.048 348.610,85.347 348.756,85.587 348.608 C 85.827 348.460,86.443 348.828,86.957 349.425 C 87.470 350.023,87.896 350.353,87.903 350.158 C 87.909 349.964,88.094 350.112,88.313 350.488 C 88.532 350.864,88.966 351.172,89.277 351.172 C 89.589 351.172,89.844 351.417,89.844 351.716 C 89.844 352.178,90.535 352.686,91.215 352.724 C 91.320 352.730,91.764 353.092,92.202 353.530 C 92.639 353.967,93.167 354.221,93.374 354.093 C 93.581 353.965,93.750 354.051,93.750 354.283 C 93.750 354.516,94.189 354.874,94.727 355.078 C 95.264 355.282,95.703 355.630,95.703 355.850 C 95.703 356.070,95.968 356.250,96.293 356.250 C 96.617 356.250,97.434 356.777,98.108 357.422 C 99.429 358.684,99.800 358.879,99.408 358.105 C 99.272 357.837,99.411 357.922,99.717 358.295 C 100.022 358.667,100.387 358.858,100.527 358.718 C 100.667 358.578,100.781 358.698,100.781 358.984 C 100.781 359.271,100.880 359.407,101.000 359.286 C 101.121 359.166,101.649 359.498,102.175 360.023 C 102.701 360.549,103.291 360.881,103.486 360.761 C 103.680 360.640,103.898 360.675,103.971 360.837 C 104.284 361.544,109.502 364.446,110.394 364.410 C 110.517 364.405,110.860 364.720,111.156 365.111 C 111.452 365.501,111.699 365.676,111.706 365.499 C 111.713 365.323,111.997 365.456,112.336 365.796 C 112.676 366.136,113.116 366.313,113.316 366.190 C 113.515 366.067,113.787 366.251,113.920 366.599 C 114.054 366.947,114.413 367.136,114.719 367.019 C 115.071 366.884,115.173 366.972,114.995 367.258 C 114.807 367.563,114.934 367.627,115.386 367.454 C 115.755 367.312,115.958 367.356,115.838 367.550 C 115.717 367.745,116.543 368.208,117.673 368.580 C 118.802 368.952,119.814 369.386,119.922 369.545 C 120.149 369.881,123.056 371.228,123.633 371.264 C 123.848 371.278,124.111 371.403,124.219 371.543 C 124.326 371.683,124.766 371.858,125.195 371.934 C 125.625 372.009,126.152 372.282,126.367 372.541 C 126.582 372.800,127.222 373.070,127.789 373.141 C 128.356 373.212,129.103 373.505,129.449 373.792 C 129.795 374.079,130.078 374.183,130.078 374.023 C 130.078 373.863,130.342 373.951,130.664 374.219 C 130.986 374.486,131.250 374.583,131.250 374.434 C 131.250 374.285,131.528 374.441,131.867 374.780 C 132.207 375.120,132.654 375.293,132.861 375.165 C 133.068 375.037,133.663 375.211,134.183 375.552 C 134.703 375.893,135.487 376.172,135.924 376.172 C 136.361 376.172,136.719 376.327,136.719 376.516 C 136.719 376.796,139.000 377.583,140.820 377.931 C 141.035 377.972,141.343 378.055,141.504 378.114 C 141.665 378.174,141.929 378.251,142.090 378.285 C 142.251 378.320,142.782 378.570,143.270 378.840 C 143.758 379.111,144.317 379.234,144.512 379.113 C 144.708 378.992,144.986 379.084,145.130 379.317 C 145.274 379.550,145.637 379.646,145.938 379.531 C 146.238 379.416,146.484 379.521,146.484 379.765 C 146.484 380.009,146.587 380.106,146.712 379.981 C 146.836 379.856,147.496 379.981,148.176 380.258 C 148.857 380.535,149.723 380.711,150.100 380.649 C 150.477 380.588,150.686 380.698,150.565 380.894 C 150.444 381.090,150.847 381.250,151.461 381.250 C 152.076 381.250,152.815 381.470,153.104 381.738 C 153.532 382.135,153.569 382.117,153.303 381.641 C 153.031 381.155,153.078 381.138,153.574 381.540 C 153.904 381.806,154.269 381.929,154.385 381.813 C 154.501 381.697,155.594 381.952,156.814 382.381 C 158.034 382.810,159.313 383.052,159.658 382.920 C 160.108 382.747,160.194 382.825,159.965 383.197 C 159.754 383.538,159.796 383.621,160.088 383.441 C 160.331 383.290,160.907 383.368,161.367 383.615 C 162.046 383.978,162.144 383.963,161.886 383.535 C 161.638 383.123,161.692 383.104,162.132 383.446 C 162.442 383.687,163.003 383.834,163.379 383.773 C 163.755 383.713,164.063 383.794,164.063 383.954 C 164.063 384.114,164.282 384.266,164.551 384.292 C 164.819 384.318,165.654 384.432,166.406 384.547 C 167.158 384.661,168.477 384.835,169.336 384.933 C 170.195 385.031,171.426 385.214,172.070 385.339 C 174.729 385.854,178.435 386.266,186.523 386.944 C 189.078 387.158,210.952 387.159,213.477 386.946 C 214.551 386.855,216.748 386.660,218.359 386.512 C 219.971 386.365,221.904 386.216,222.656 386.182 C 223.408 386.149,224.199 386.013,224.414 385.881 C 224.629 385.749,225.288 385.696,225.879 385.763 C 226.470 385.829,226.953 385.718,226.953 385.514 C 226.953 385.158,227.311 385.124,230.566 385.163 C 231.372 385.173,232.031 385.010,232.031 384.802 C 232.031 384.442,232.377 384.391,234.863 384.389 C 235.454 384.388,235.938 384.198,235.938 383.967 C 235.938 383.720,236.419 383.623,237.109 383.732 C 237.766 383.835,238.281 383.741,238.281 383.518 C 238.281 383.299,238.569 383.230,238.920 383.365 C 239.272 383.500,240.498 383.259,241.646 382.829 C 242.793 382.400,243.982 382.145,244.287 382.262 C 244.593 382.379,244.949 382.304,245.078 382.095 C 245.207 381.885,245.692 381.813,246.155 381.934 C 246.728 382.084,246.909 382.011,246.720 381.707 C 246.537 381.411,246.662 381.343,247.089 381.507 C 247.445 381.643,247.854 381.561,248.000 381.326 C 248.146 381.090,248.892 380.828,249.658 380.743 C 250.424 380.659,251.278 380.450,251.555 380.278 C 251.832 380.107,252.343 379.931,252.690 379.887 C 254.106 379.710,255.888 379.176,256.075 378.873 C 256.185 378.695,256.533 378.649,256.848 378.770 C 257.164 378.891,257.422 378.801,257.422 378.570 C 257.422 378.339,257.686 378.251,258.008 378.374 C 258.330 378.498,258.594 378.421,258.594 378.203 C 258.594 377.986,258.945 377.899,259.375 378.012 C 259.812 378.126,260.156 378.024,260.156 377.780 C 260.156 377.540,260.288 377.375,260.449 377.413 C 260.997 377.542,264.028 376.543,264.268 376.155 C 264.400 375.942,264.666 375.866,264.859 375.986 C 265.053 376.106,265.788 375.897,266.492 375.522 C 267.197 375.146,267.905 374.876,268.066 374.920 C 268.228 374.964,268.359 374.847,268.359 374.659 C 268.359 374.472,269.071 374.205,269.940 374.066 C 270.991 373.898,271.428 373.662,271.243 373.364 C 271.059 373.065,271.184 372.998,271.616 373.164 C 271.973 373.301,272.266 373.232,272.266 373.012 C 272.266 372.791,272.447 372.722,272.669 372.860 C 272.891 372.997,273.692 372.743,274.449 372.297 C 275.206 371.850,276.090 371.484,276.413 371.484 C 276.757 371.484,276.884 371.298,276.721 371.033 C 276.555 370.765,276.613 370.688,276.863 370.843 C 277.369 371.155,279.297 370.343,279.297 369.817 C 279.297 369.614,279.535 369.539,279.825 369.650 C 280.116 369.762,280.648 369.510,281.008 369.090 C 281.367 368.670,281.833 368.432,282.042 368.561 C 282.251 368.690,282.422 368.600,282.422 368.359 C 282.422 368.119,282.598 368.031,282.813 368.164 C 283.027 368.297,283.203 368.225,283.203 368.004 C 283.203 367.783,283.453 367.699,283.759 367.816 C 284.065 367.933,284.680 367.664,285.126 367.218 C 285.572 366.771,286.030 366.417,286.144 366.429 C 286.687 366.491,290.625 364.380,290.625 364.028 C 290.625 363.807,290.787 363.726,290.984 363.848 C 291.182 363.970,291.618 363.795,291.954 363.459 C 292.290 363.123,292.937 362.777,293.391 362.689 C 293.846 362.602,294.552 362.145,294.961 361.674 C 295.369 361.203,295.706 360.977,295.709 361.171 C 295.712 361.365,295.862 361.292,296.041 361.009 C 296.322 360.566,296.993 360.304,298.145 360.186 C 298.306 360.170,298.438 359.898,298.438 359.583 C 298.438 359.208,298.663 359.095,299.088 359.258 C 299.525 359.426,299.645 359.358,299.455 359.051 C 299.287 358.778,299.413 358.594,299.766 358.594 C 300.093 358.594,300.692 358.237,301.098 357.801 C 301.505 357.365,302.258 356.930,302.774 356.834 C 303.289 356.737,304.126 356.171,304.633 355.575 C 305.140 354.980,305.438 354.710,305.296 354.976 C 305.126 355.295,305.240 355.382,305.631 355.232 C 305.958 355.107,306.187 354.809,306.140 354.571 C 306.093 354.332,306.266 354.129,306.523 354.119 C 306.781 354.110,307.212 353.882,307.480 353.613 C 307.749 353.345,308.208 353.125,308.500 353.125 C 308.792 353.125,308.922 352.949,308.789 352.734 C 308.656 352.520,308.803 352.344,309.115 352.344 C 309.427 352.344,309.783 352.080,309.907 351.758 C 310.031 351.436,310.421 351.172,310.775 351.172 C 311.129 351.172,312.048 350.513,312.817 349.707 C 313.586 348.901,313.967 348.594,313.662 349.023 C 313.358 349.453,313.772 349.146,314.581 348.340 C 315.391 347.534,316.319 346.875,316.643 346.875 C 316.968 346.875,317.125 346.699,316.992 346.484 C 316.859 346.270,316.956 346.094,317.206 346.094 C 317.456 346.094,318.008 345.653,318.432 345.113 C 318.856 344.574,319.359 344.230,319.550 344.347 C 319.740 344.465,320.120 344.203,320.394 343.765 C 320.667 343.327,321.112 342.969,321.383 342.969 C 321.654 342.969,321.875 342.695,321.875 342.360 C 321.875 342.025,322.024 341.843,322.206 341.955 C 322.388 342.068,323.083 341.595,323.751 340.904 C 325.007 339.606,325.586 339.094,327.498 337.598 C 328.116 337.114,328.465 336.713,328.275 336.705 C 328.085 336.697,328.369 336.440,328.906 336.133 C 329.443 335.826,329.707 335.568,329.492 335.561 C 329.016 335.544,332.377 332.422,332.872 332.422 C 333.065 332.422,333.394 331.972,333.603 331.422 C 333.812 330.872,334.139 330.518,334.330 330.636 C 334.521 330.754,334.773 330.483,334.890 330.034 C 335.011 329.573,335.289 329.333,335.530 329.482 C 335.765 329.627,335.909 329.521,335.850 329.246 C 335.790 328.971,336.006 328.730,336.328 328.711 C 336.650 328.691,336.874 328.474,336.824 328.229 C 336.775 327.983,337.065 327.677,337.469 327.549 C 337.873 327.421,338.312 326.883,338.445 326.353 C 338.578 325.824,338.957 325.391,339.288 325.391 C 339.619 325.391,339.788 325.227,339.665 325.026 C 339.541 324.826,339.977 324.344,340.634 323.956 C 341.291 323.568,341.929 322.853,342.051 322.367 C 342.172 321.882,342.517 321.484,342.816 321.484 C 343.115 321.484,343.359 321.342,343.359 321.167 C 343.359 320.993,343.677 320.510,344.065 320.093 C 344.453 319.677,344.839 319.160,344.922 318.945 C 345.089 318.515,345.191 318.386,346.925 316.406 C 347.584 315.654,348.287 314.619,348.487 314.106 C 348.686 313.593,348.961 313.284,349.097 313.420 C 349.377 313.700,351.172 311.213,351.172 310.545 C 351.172 310.306,351.335 310.211,351.534 310.334 C 351.734 310.457,352.023 310.160,352.176 309.674 C 352.330 309.187,352.782 308.559,353.181 308.279 C 353.580 307.998,353.906 307.437,353.906 307.031 C 353.906 306.626,354.257 306.049,354.685 305.749 C 355.113 305.449,355.352 305.091,355.215 304.955 C 355.078 304.818,355.254 304.595,355.606 304.460 C 355.958 304.325,356.148 304.058,356.029 303.865 C 355.911 303.673,355.999 303.516,356.227 303.516 C 356.454 303.516,356.641 303.315,356.641 303.070 C 356.641 302.826,356.895 302.430,357.205 302.192 C 357.516 301.953,357.823 301.494,357.889 301.172 C 357.954 300.850,358.320 300.353,358.702 300.068 C 359.083 299.784,359.347 299.256,359.288 298.896 C 359.228 298.537,359.383 298.281,359.631 298.327 C 359.879 298.374,360.185 298.146,360.310 297.819 C 360.459 297.431,360.370 297.310,360.054 297.470 C 359.788 297.604,359.878 297.462,360.254 297.154 C 360.630 296.846,360.938 296.305,360.938 295.953 C 360.938 295.601,361.096 295.313,361.290 295.313 C 361.484 295.313,361.826 294.785,362.051 294.141 C 362.276 293.496,362.644 292.969,362.870 292.969 C 363.096 292.969,363.281 292.636,363.281 292.229 C 363.281 291.823,363.545 291.389,363.867 291.265 C 364.189 291.141,364.453 290.617,364.453 290.099 C 364.453 289.582,364.700 288.954,365.001 288.704 C 365.302 288.454,365.659 287.810,365.793 287.273 C 365.943 286.675,366.211 286.403,366.484 286.572 C 366.778 286.753,366.845 286.626,366.680 286.197 C 366.543 285.839,366.611 285.547,366.832 285.547 C 367.053 285.547,367.134 285.385,367.012 285.188 C 366.890 284.990,367.061 284.557,367.393 284.225 C 367.725 283.893,367.990 283.527,367.983 283.412 C 367.929 282.608,368.013 282.403,368.318 282.592 C 368.511 282.711,368.772 282.536,368.900 282.204 C 369.056 281.797,368.974 281.692,368.648 281.883 C 368.382 282.038,368.435 281.828,368.767 281.415 C 369.534 280.460,370.746 277.742,370.756 276.953 C 370.758 276.846,371.037 276.450,371.377 276.074 C 371.718 275.698,371.859 275.391,371.692 275.391 C 371.525 275.391,371.608 275.127,371.875 274.805 C 372.142 274.482,372.208 274.213,372.020 274.207 C 371.833 274.200,371.987 274.016,372.363 273.797 C 372.764 273.564,373.047 272.933,373.047 272.274 C 373.047 271.656,373.281 270.916,373.567 270.630 C 373.852 270.344,374.020 269.912,373.940 269.671 C 373.859 269.429,374.035 268.990,374.330 268.694 C 374.626 268.399,374.802 267.959,374.721 267.718 C 374.640 267.476,374.852 267.000,375.192 266.661 C 375.531 266.321,375.792 265.993,375.770 265.932 C 375.710 265.762,376.193 264.398,376.800 263.027 C 377.099 262.350,377.344 261.437,377.344 260.999 C 377.344 260.561,377.512 260.098,377.717 259.971 C 377.923 259.844,377.992 259.483,377.871 259.167 C 377.750 258.852,377.817 258.594,378.019 258.594 C 378.354 258.594,379.491 255.135,379.942 252.747 C 380.042 252.216,380.288 251.585,380.489 251.343 C 380.689 251.102,380.741 250.793,380.605 250.657 C 380.469 250.521,380.556 250.170,380.799 249.877 C 381.042 249.585,381.287 248.702,381.343 247.916 C 381.399 247.129,381.561 246.486,381.702 246.485 C 381.843 246.485,381.859 246.105,381.738 245.642 C 381.587 245.064,381.660 244.888,381.971 245.080 C 382.275 245.268,382.380 245.070,382.289 244.477 C 382.215 243.991,382.382 242.838,382.660 241.914 C 382.938 240.990,383.065 240.234,382.941 240.234 C 382.818 240.234,382.934 239.973,383.199 239.653 C 383.464 239.334,383.581 238.812,383.459 238.494 C 383.337 238.176,383.389 237.822,383.574 237.707 C 383.759 237.593,383.819 237.148,383.707 236.718 C 383.595 236.289,383.682 235.937,383.902 235.937 C 384.122 235.937,384.210 235.586,384.098 235.156 C 383.985 234.727,384.060 234.375,384.264 234.375 C 384.468 234.375,384.601 233.979,384.559 233.496 C 384.516 233.013,384.585 232.441,384.710 232.227 C 384.958 231.802,385.051 231.208,385.295 228.478 C 385.384 227.490,385.574 226.312,385.718 225.858 C 385.998 224.977,386.281 222.454,386.561 218.359 C 386.657 216.963,386.815 214.854,386.912 213.672 C 387.246 209.643,387.395 188.868,387.094 188.477 C 386.929 188.262,386.788 187.295,386.781 186.328 C 386.768 184.480,386.593 182.213,386.164 178.320 C 386.022 177.031,385.857 175.441,385.799 174.787 C 385.740 174.133,385.559 173.382,385.396 173.118 C 385.233 172.854,385.150 172.159,385.211 171.573 C 385.272 170.987,385.186 170.286,385.019 170.016 C 384.852 169.745,384.826 169.174,384.962 168.747 C 385.100 168.312,385.031 167.969,384.804 167.969 C 384.582 167.969,384.497 167.713,384.617 167.402 C 384.737 167.090,384.690 166.606,384.513 166.327 C 384.336 166.048,384.186 165.557,384.180 165.234 C 384.173 164.912,384.011 164.402,383.820 164.100 C 383.561 163.690,383.612 163.635,384.022 163.882 C 384.455 164.143,384.478 164.094,384.132 163.649 C 383.891 163.339,383.744 162.777,383.805 162.400 C 383.866 162.023,383.779 161.799,383.613 161.902 C 383.446 162.005,383.310 161.394,383.310 160.544 C 383.310 159.693,383.132 158.775,382.916 158.503 C 382.699 158.230,382.572 157.700,382.633 157.324 C 382.694 156.948,382.573 156.641,382.364 156.641 C 382.156 156.641,382.099 156.457,382.237 156.233 C 382.376 156.009,382.292 155.588,382.051 155.297 C 381.810 155.007,381.640 154.619,381.673 154.436 C 381.706 154.252,381.699 154.014,381.658 153.906 C 381.582 153.711,381.303 152.273,381.126 151.172 C 381.074 150.850,380.888 150.355,380.711 150.072 C 380.535 149.789,380.497 149.451,380.626 149.322 C 380.756 149.192,380.600 148.685,380.279 148.196 C 379.959 147.707,379.812 147.005,379.954 146.636 C 380.142 146.145,380.073 146.051,379.692 146.286 C 379.303 146.526,379.229 146.396,379.394 145.764 C 379.515 145.301,379.436 144.922,379.219 144.922 C 379.001 144.922,378.919 144.670,379.038 144.361 C 379.156 144.053,379.092 143.745,378.896 143.678 C 378.699 143.610,378.479 143.164,378.407 142.686 C 378.334 142.208,378.154 141.695,378.005 141.547 C 377.856 141.398,377.734 140.985,377.734 140.630 C 377.734 140.274,377.406 139.309,377.006 138.485 C 376.605 137.661,376.362 136.663,376.465 136.267 C 376.576 135.844,376.447 135.547,376.152 135.547 C 375.877 135.547,375.767 135.431,375.908 135.290 C 376.049 135.148,375.969 134.797,375.730 134.509 C 375.491 134.220,375.409 133.984,375.548 133.984 C 375.687 133.984,375.497 133.413,375.125 132.715 C 374.753 132.017,374.485 131.313,374.529 131.152 C 374.573 130.991,374.439 130.859,374.231 130.859 C 374.023 130.859,373.943 130.624,374.053 130.336 C 374.164 130.048,373.985 129.589,373.655 129.315 C 373.325 129.042,373.157 128.654,373.280 128.454 C 373.404 128.254,373.213 127.646,372.857 127.102 C 372.501 126.559,372.140 125.751,372.054 125.308 C 371.969 124.865,371.603 124.175,371.241 123.775 C 370.878 123.374,370.712 123.047,370.870 123.047 C 371.028 123.047,370.794 122.459,370.350 121.740 C 369.905 121.021,369.657 120.317,369.798 120.176 C 369.940 120.034,369.643 119.480,369.139 118.944 C 368.635 118.408,368.386 117.966,368.584 117.963 C 368.783 117.959,368.740 117.826,368.488 117.666 C 368.237 117.506,367.973 117.118,367.902 116.802 C 367.831 116.487,367.552 115.991,367.282 115.700 C 367.011 115.409,366.880 115.025,366.991 114.846 C 367.102 114.666,367.021 114.461,366.811 114.389 C 366.601 114.317,366.369 113.864,366.297 113.383 C 366.224 112.902,365.779 112.066,365.309 111.525 C 364.838 110.984,364.453 110.180,364.453 109.740 C 364.453 109.299,364.292 109.038,364.094 109.160 C 363.897 109.282,363.617 108.841,363.472 108.180 C 363.326 107.519,362.950 106.880,362.636 106.759 C 362.322 106.639,362.160 106.290,362.278 105.984 C 362.395 105.678,362.336 105.524,362.146 105.642 C 361.806 105.852,361.145 104.769,361.266 104.199 C 361.300 104.038,361.170 103.906,360.976 103.906 C 360.782 103.906,360.439 103.379,360.215 102.734 C 359.990 102.090,359.640 101.563,359.437 101.563 C 359.234 101.563,358.963 101.290,358.835 100.956 C 358.678 100.547,358.760 100.442,359.087 100.633 C 359.603 100.935,358.274 99.219,357.617 98.736 C 357.402 98.579,357.389 98.447,357.588 98.443 C 357.786 98.440,357.565 98.029,357.096 97.530 C 356.627 97.030,356.376 96.488,356.539 96.325 C 356.702 96.162,356.572 96.087,356.250 96.159 C 355.928 96.230,355.708 96.069,355.762 95.801 C 355.815 95.532,355.673 95.313,355.446 95.312 C 355.218 95.312,355.141 95.137,355.273 94.922 C 355.406 94.707,355.329 94.531,355.101 94.531 C 354.874 94.531,354.688 94.257,354.688 93.922 C 354.688 93.587,354.512 93.422,354.297 93.555 C 354.082 93.687,353.906 93.453,353.906 93.034 C 353.906 92.614,353.617 92.160,353.264 92.025 C 352.911 91.889,352.725 91.676,352.850 91.551 C 352.975 91.426,352.648 90.927,352.124 90.442 C 351.600 89.956,351.172 89.378,351.172 89.156 C 351.172 88.935,350.381 87.916,349.414 86.893 C 348.447 85.869,347.656 84.796,347.656 84.508 C 347.656 84.220,347.470 83.984,347.243 83.984 C 347.015 83.984,346.954 83.781,347.108 83.533 C 347.280 83.254,347.215 83.188,346.935 83.362 C 346.659 83.532,346.333 83.246,346.099 82.631 C 345.888 82.075,345.449 81.518,345.123 81.394 C 344.798 81.269,344.531 80.940,344.531 80.664 C 344.531 80.388,344.256 80.056,343.921 79.927 C 343.585 79.798,343.422 79.512,343.559 79.290 C 343.696 79.068,343.575 78.935,343.291 78.994 C 343.006 79.053,342.817 78.882,342.871 78.613 C 342.925 78.345,342.772 78.169,342.532 78.223 C 342.292 78.276,342.040 77.984,341.972 77.573 C 341.903 77.162,341.363 76.371,340.772 75.815 C 340.102 75.186,339.908 75.100,340.258 75.586 C 340.777 76.307,340.768 76.326,340.137 75.831 C 339.761 75.536,339.452 75.097,339.451 74.855 C 339.450 74.612,338.835 73.745,338.084 72.927 C 337.333 72.110,336.719 71.564,336.719 71.715 C 336.719 72.021,335.234 70.430,334.458 69.292 C 334.182 68.887,334.077 68.802,334.225 69.103 C 334.402 69.461,334.339 69.555,334.045 69.373 C 333.797 69.220,333.594 68.928,333.594 68.724 C 333.594 68.146,331.568 66.014,331.222 66.228 C 331.052 66.333,330.786 66.213,330.631 65.962 C 330.437 65.649,330.521 65.609,330.897 65.835 C 331.366 66.118,331.367 66.069,330.901 65.495 C 330.602 65.127,330.263 64.919,330.147 65.035 C 329.804 65.378,327.740 63.197,328.004 62.770 C 328.137 62.555,328.056 62.496,327.825 62.640 C 327.593 62.783,327.018 62.358,326.546 61.696 C 326.075 61.034,325.254 60.327,324.721 60.124 C 324.188 59.922,323.667 59.429,323.562 59.028 C 323.457 58.628,322.903 58.060,322.330 57.766 C 321.758 57.472,321.005 56.923,320.657 56.546 C 320.310 56.168,319.837 55.859,319.606 55.859 C 319.375 55.859,319.061 55.656,318.908 55.408 C 318.725 55.112,318.817 55.055,319.178 55.242 C 319.480 55.399,319.385 55.250,318.968 54.912 C 318.551 54.574,317.951 54.297,317.634 54.297 C 317.317 54.297,317.166 54.188,317.299 54.055 C 317.622 53.733,316.848 53.030,315.527 52.445 C 314.937 52.184,314.453 51.790,314.453 51.571 C 314.453 51.351,314.196 51.172,313.881 51.172 C 313.566 51.172,313.121 50.820,312.891 50.391 C 312.661 49.961,312.312 49.609,312.116 49.609 C 311.920 49.609,311.288 49.173,310.713 48.640 C 310.138 48.107,309.509 47.769,309.316 47.888 C 309.123 48.007,309.013 47.896,309.072 47.640 C 309.131 47.384,308.843 47.118,308.433 47.050 C 308.022 46.981,307.274 46.446,306.770 45.861 C 306.267 45.275,305.745 44.906,305.610 45.041 C 305.475 45.176,305.016 44.842,304.589 44.299 C 304.162 43.756,303.583 43.400,303.303 43.507 C 303.023 43.615,302.512 43.274,302.169 42.750 C 301.825 42.226,301.197 41.797,300.772 41.797 C 300.348 41.797,300.000 41.621,300.000 41.406 C 300.000 41.191,299.868 41.049,299.707 41.089 C 299.291 41.194,296.484 39.438,296.484 39.073 C 296.484 38.906,295.945 38.662,295.287 38.530 C 294.500 38.373,294.187 38.132,294.374 37.829 C 294.564 37.521,294.453 37.446,294.042 37.604 C 293.680 37.743,293.331 37.599,293.199 37.255 C 293.075 36.933,292.816 36.767,292.622 36.887 C 292.428 37.007,292.162 36.824,292.030 36.481 C 291.877 36.082,291.549 35.949,291.122 36.113 C 290.754 36.254,290.573 36.250,290.719 36.104 C 291.015 35.808,288.419 34.375,287.590 34.375 C 287.300 34.375,287.171 34.201,287.302 33.989 C 287.439 33.767,287.282 33.702,286.934 33.835 C 286.600 33.964,286.328 33.864,286.328 33.612 C 286.328 33.362,286.174 33.252,285.985 33.369 C 285.797 33.485,285.050 33.152,284.325 32.628 C 282.515 31.318,280.017 30.048,280.339 30.601 C 280.484 30.851,280.265 30.771,279.852 30.425 C 279.439 30.078,278.223 29.469,277.148 29.072 C 276.074 28.675,274.953 28.113,274.657 27.824 C 274.360 27.535,273.888 27.387,273.608 27.495 C 273.327 27.602,273.042 27.538,272.974 27.351 C 272.907 27.164,272.588 26.955,272.266 26.885 C 271.943 26.815,271.576 26.617,271.449 26.445 C 271.322 26.273,270.839 26.104,270.375 26.069 C 269.911 26.034,269.531 25.848,269.531 25.656 C 269.531 25.464,269.258 25.412,268.925 25.540 C 268.532 25.690,268.416 25.615,268.595 25.325 C 268.784 25.020,268.603 24.947,268.029 25.097 C 267.566 25.219,267.285 25.158,267.405 24.964 C 267.606 24.639,266.948 24.459,265.723 24.504 C 265.454 24.514,265.234 24.348,265.234 24.134 C 265.234 23.920,264.962 23.849,264.628 23.977 C 264.295 24.105,264.118 24.055,264.235 23.865 C 264.455 23.509,263.159 23.062,261.155 22.803 C 260.523 22.721,259.883 22.456,259.734 22.214 C 259.585 21.973,259.282 21.886,259.061 22.023 C 258.841 22.159,258.602 22.099,258.529 21.889 C 258.457 21.679,257.959 21.458,257.422 21.398 C 256.885 21.338,256.340 21.146,256.212 20.972 C 256.083 20.797,255.424 20.639,254.747 20.619 C 254.070 20.600,253.516 20.416,253.516 20.211 C 253.516 20.006,253.252 19.939,252.930 20.063 C 252.607 20.187,252.344 20.128,252.344 19.932 C 252.344 19.736,251.992 19.644,251.563 19.727 C 251.133 19.809,250.781 19.722,250.781 19.533 C 250.781 19.344,250.474 19.181,250.098 19.170 C 248.569 19.127,248.047 18.992,248.047 18.639 C 248.047 18.435,247.695 18.360,247.266 18.473 C 246.836 18.585,246.484 18.528,246.484 18.345 C 246.484 18.163,246.128 18.082,245.693 18.166 C 245.220 18.257,245.001 18.157,245.149 17.917 C 245.290 17.689,245.083 17.548,244.672 17.591 C 244.272 17.634,243.857 17.636,243.750 17.596 C 243.426 17.477,241.259 17.123,240.527 17.070 C 240.151 17.042,239.844 16.884,239.844 16.718 C 239.844 16.551,239.448 16.411,238.965 16.407 C 237.151 16.391,236.328 16.228,236.328 15.886 C 236.328 15.693,235.884 15.619,235.342 15.722 C 234.800 15.826,234.261 15.757,234.145 15.570 C 234.029 15.382,233.506 15.306,232.983 15.401 C 232.459 15.496,232.031 15.404,232.031 15.196 C 232.031 14.989,231.460 14.823,230.762 14.828 C 228.384 14.844,226.953 14.651,226.953 14.313 C 226.953 14.127,226.369 14.085,225.656 14.219 C 224.942 14.353,224.238 14.342,224.090 14.195 C 223.800 13.904,222.945 13.779,219.336 13.496 C 218.047 13.395,215.762 13.209,214.258 13.083 C 210.634 12.779,189.679 12.637,188.567 12.908 M264.844 125.293 L 264.844 141.211 218.848 141.211 L 172.852 141.211 172.750 162.010 L 172.649 182.809 212.985 182.908 L 253.320 183.008 253.422 198.926 L 253.524 214.844 213.090 214.844 L 172.656 214.844 172.656 252.734 L 172.656 290.625 154.102 290.625 L 135.547 290.625 135.547 200.000 L 135.547 109.375 200.195 109.375 L 264.844 109.375 264.844 125.293 " stroke="none" fill="#dc1464" fill-rule="evenodd"></path><path id="path1" d="M187.500 12.908 C 187.072 13.198,187.230 13.234,188.086 13.043 C 189.522 12.722,189.834 12.498,188.835 12.506 C 188.423 12.509,187.822 12.690,187.500 12.908 M196.197 12.780 C 196.791 12.870,197.669 12.868,198.150 12.775 C 198.630 12.682,198.145 12.609,197.070 12.612 C 195.996 12.615,195.603 12.691,196.197 12.780 M202.056 12.780 C 202.650 12.870,203.529 12.868,204.009 12.775 C 204.490 12.682,204.004 12.609,202.930 12.612 C 201.855 12.615,201.462 12.691,202.056 12.780 M210.579 12.640 C 210.669 12.718,211.270 12.899,211.914 13.043 C 212.770 13.234,212.928 13.198,212.500 12.908 C 211.973 12.552,210.187 12.302,210.579 12.640 M215.658 13.031 C 215.747 13.108,216.348 13.289,216.992 13.433 C 217.848 13.625,218.006 13.589,217.578 13.299 C 217.051 12.942,215.266 12.693,215.658 13.031 M172.656 14.459 C 172.244 14.729,172.476 14.768,173.438 14.592 C 175.122 14.283,175.440 14.061,174.186 14.068 C 173.667 14.072,172.979 14.247,172.656 14.459 M150.977 18.750 C 150.223 19.074,150.226 19.087,151.051 19.113 C 151.522 19.128,152.016 18.965,152.148 18.750 C 152.434 18.288,152.052 18.288,150.977 18.750 M259.766 22.257 C 259.766 22.426,260.117 22.657,260.547 22.769 C 260.977 22.882,261.328 22.835,261.328 22.665 C 261.328 22.496,260.977 22.265,260.547 22.152 C 260.117 22.040,259.766 22.087,259.766 22.257 M126.855 27.017 C 126.265 27.232,125.781 27.575,125.781 27.777 C 125.781 27.979,126.309 27.872,126.953 27.539 C 127.859 27.071,128.610 26.409,128.027 26.593 C 127.974 26.610,127.446 26.801,126.855 27.017 M283.396 32.027 C 283.748 32.596,285.938 33.680,285.938 33.286 C 285.938 33.105,285.310 32.658,284.543 32.292 C 283.776 31.927,283.260 31.807,283.396 32.027 M109.473 35.447 C 108.774 35.795,108.203 36.220,108.203 36.393 C 108.203 36.565,108.818 36.413,109.570 36.054 C 110.322 35.696,110.938 35.259,110.938 35.084 C 110.938 34.697,111.022 34.676,109.473 35.447 M296.527 39.235 C 297.111 39.820,299.609 41.334,299.605 41.102 C 299.599 40.798,297.059 39.063,296.620 39.063 C 296.474 39.063,296.432 39.140,296.527 39.235 M97.852 42.409 C 96.777 43.151,95.828 43.968,95.742 44.225 C 95.655 44.481,96.299 44.125,97.171 43.434 C 98.044 42.743,99.257 41.917,99.867 41.599 C 100.477 41.281,100.713 41.029,100.391 41.040 C 100.068 41.050,98.926 41.666,97.852 42.409 M87.280 50.059 L 86.133 51.290 87.402 50.376 C 88.101 49.874,88.672 49.320,88.672 49.145 C 88.672 48.639,88.496 48.754,87.280 50.059 M314.453 51.531 C 314.453 51.926,315.973 52.912,316.206 52.668 C 316.274 52.597,315.907 52.223,315.391 51.837 C 314.875 51.451,314.453 51.313,314.453 51.531 M83.594 52.734 C 82.842 53.367,82.366 53.890,82.536 53.896 C 82.706 53.902,83.058 53.730,83.317 53.515 C 83.577 53.301,84.229 52.779,84.766 52.357 C 85.303 51.934,85.566 51.587,85.352 51.586 C 85.137 51.585,84.346 52.101,83.594 52.734 M320.313 56.022 C 320.313 56.434,321.489 57.547,321.701 57.336 C 321.799 57.237,321.527 56.838,321.096 56.447 C 320.665 56.057,320.313 55.866,320.313 56.022 M75.000 60.008 C 74.678 60.320,73.843 61.024,73.145 61.572 C 72.446 62.121,71.875 62.737,71.875 62.941 C 71.875 63.146,72.358 62.859,72.949 62.304 C 73.540 61.749,74.551 60.868,75.195 60.347 C 75.840 59.826,76.191 59.409,75.977 59.420 C 75.762 59.431,75.322 59.696,75.000 60.008 M328.117 63.468 C 329.061 64.431,329.893 65.159,329.964 65.088 C 330.156 64.896,327.099 61.719,326.722 61.719 C 326.545 61.719,327.173 62.506,328.117 63.468 M68.842 65.804 C 67.612 67.083,67.752 67.420,69.024 66.240 C 69.605 65.702,69.998 65.180,69.897 65.080 C 69.797 64.979,69.322 65.306,68.842 65.804 M66.003 68.825 L 65.125 70.117 66.196 69.017 C 66.785 68.413,67.180 67.831,67.074 67.725 C 66.969 67.620,66.487 68.115,66.003 68.825 M334.766 69.638 C 334.766 69.772,335.205 70.356,335.742 70.935 C 336.279 71.515,336.719 71.818,336.719 71.610 C 336.719 71.401,336.279 70.817,335.742 70.313 C 335.205 69.808,334.766 69.505,334.766 69.638 M58.789 76.194 C 57.262 77.691,57.716 77.680,59.420 76.178 C 60.147 75.537,60.566 75.020,60.352 75.029 C 60.137 75.037,59.434 75.562,58.789 76.194 M342.770 78.902 C 343.385 79.544,343.964 79.995,344.056 79.902 C 344.260 79.699,342.340 77.734,341.937 77.734 C 341.779 77.734,342.154 78.260,342.770 78.902 M51.589 85.119 C 51.145 85.743,50.781 86.392,50.781 86.562 C 50.781 86.732,51.221 86.275,51.758 85.547 C 52.295 84.819,52.734 84.169,52.734 84.104 C 52.734 83.735,52.302 84.118,51.589 85.119 M347.677 84.570 C 347.677 84.785,348.195 85.576,348.828 86.328 C 349.461 87.080,349.979 87.520,349.979 87.305 C 349.979 87.090,349.461 86.299,348.828 85.547 C 348.195 84.795,347.677 84.355,347.677 84.570 M351.172 89.251 C 351.172 89.380,351.545 89.874,352.001 90.348 L 352.831 91.211 352.390 90.354 C 351.954 89.506,351.172 88.798,351.172 89.251 M43.914 95.850 C 43.243 96.580,42.078 98.438,42.292 98.438 C 42.571 98.438,44.637 95.677,44.473 95.522 C 44.398 95.450,44.146 95.598,43.914 95.850 M356.250 96.680 C 356.755 97.217,357.233 97.656,357.313 97.656 C 357.637 97.656,356.028 95.727,355.694 95.715 C 355.495 95.709,355.745 96.143,356.250 96.680 M361.639 105.466 C 362.005 106.109,362.428 106.637,362.579 106.638 C 362.731 106.640,362.555 106.114,362.189 105.471 C 361.823 104.828,361.400 104.301,361.249 104.299 C 361.097 104.298,361.273 104.823,361.639 105.466 M35.416 109.668 C 34.849 110.913,34.842 111.015,35.372 110.352 C 36.318 109.165,36.785 108.203,36.414 108.203 C 36.232 108.203,35.782 108.862,35.416 109.668 M199.898 109.668 L 264.444 109.768 264.551 125.685 L 264.657 141.602 264.751 125.488 L 264.844 109.375 200.098 109.471 L 135.352 109.568 199.898 109.668 M27.357 126.146 C 26.863 127.071,26.840 127.460,27.297 127.178 C 27.641 126.965,28.179 125.391,27.907 125.391 C 27.827 125.391,27.580 125.731,27.357 126.146 M25.078 131.914 C 24.500 133.797,24.780 134.077,25.391 132.227 C 25.648 131.446,25.783 130.731,25.690 130.638 C 25.597 130.545,25.322 131.120,25.078 131.914 M23.698 135.417 C 23.555 135.560,23.449 136.043,23.462 136.491 C 23.485 137.239,23.517 137.229,23.861 136.369 C 24.244 135.413,24.164 134.950,23.698 135.417 M376.645 137.793 C 377.193 139.084,377.996 140.034,377.552 138.867 C 377.389 138.438,377.167 137.778,377.059 137.402 C 376.950 137.026,376.710 136.719,376.525 136.719 C 376.340 136.719,376.394 137.202,376.645 137.793 M21.680 141.271 C 21.352 142.056,21.174 142.788,21.284 142.899 C 21.394 143.009,21.484 143.003,21.484 142.886 C 21.484 142.769,21.750 142.037,22.076 141.259 C 22.401 140.480,22.579 139.844,22.471 139.844 C 22.364 139.844,22.008 140.486,21.680 141.271 M18.583 151.395 C 18.439 151.968,18.409 152.524,18.517 152.631 C 18.624 152.739,18.830 152.358,18.973 151.786 C 19.117 151.213,19.147 150.657,19.039 150.550 C 18.932 150.442,18.726 150.823,18.583 151.395 M16.600 160.254 C 16.156 161.508,15.736 164.063,15.973 164.063 C 16.119 164.063,16.415 163.096,16.632 161.914 C 17.002 159.892,16.988 159.156,16.600 160.254 M385.156 171.787 C 385.156 172.455,385.329 173.108,385.541 173.239 C 385.781 173.387,385.834 172.993,385.680 172.187 C 385.351 170.460,385.156 170.311,385.156 171.787 M386.036 177.148 C 386.040 178.008,386.120 178.313,386.214 177.827 C 386.307 177.342,386.304 176.638,386.206 176.265 C 386.108 175.892,386.032 176.289,386.036 177.148 M386.585 183.672 C 386.914 185.399,387.109 185.548,387.109 184.073 C 387.109 183.405,386.936 182.752,386.725 182.621 C 386.484 182.472,386.432 182.867,386.585 183.672 M212.891 183.105 L 253.125 183.207 253.125 198.828 L 253.125 214.449 212.793 214.551 L 172.461 214.652 212.993 214.748 L 253.524 214.844 253.422 198.926 L 253.320 183.008 212.988 183.005 L 172.656 183.002 212.891 183.105 M386.746 187.379 C 386.731 187.850,386.895 188.344,387.109 188.477 C 387.571 188.762,387.571 188.380,387.109 187.305 C 386.786 186.551,386.773 186.554,386.746 187.379 M12.631 200.000 C 12.631 201.611,12.700 202.271,12.785 201.465 C 12.869 200.659,12.869 199.341,12.785 198.535 C 12.700 197.729,12.631 198.389,12.631 200.000 M387.200 210.547 C 387.200 211.299,387.280 211.606,387.379 211.230 C 387.477 210.854,387.477 210.239,387.379 209.863 C 387.280 209.487,387.200 209.795,387.200 210.547 M12.533 211.133 C 12.522 211.563,12.682 212.178,12.891 212.500 C 13.392 213.277,13.392 212.301,12.891 211.133 L 12.555 210.352 12.533 211.133 M386.764 215.886 C 386.739 216.137,386.605 216.664,386.466 217.058 C 386.270 217.613,386.322 217.673,386.698 217.327 C 386.965 217.081,387.099 216.554,386.996 216.155 C 386.893 215.756,386.789 215.635,386.764 215.886 M13.763 223.438 C 13.763 224.189,13.843 224.497,13.941 224.121 C 14.039 223.745,14.039 223.130,13.941 222.754 C 13.843 222.378,13.763 222.686,13.763 223.438 M15.652 235.426 C 15.637 235.897,15.801 236.391,16.016 236.523 C 16.478 236.809,16.478 236.427,16.016 235.352 C 15.692 234.598,15.679 234.601,15.652 235.426 M16.701 240.820 C 16.804 241.357,16.955 241.797,17.038 241.797 C 17.120 241.797,17.188 241.357,17.188 240.820 C 17.188 240.283,17.036 239.844,16.851 239.844 C 16.666 239.844,16.599 240.283,16.701 240.820 M373.233 271.123 C 372.856 272.309,373.237 272.431,373.756 271.291 C 374.001 270.753,374.042 270.313,373.846 270.313 C 373.650 270.313,373.374 270.677,373.233 271.123 M365.810 287.178 C 365.657 287.677,365.272 288.383,364.953 288.747 C 364.634 289.110,364.440 289.609,364.522 289.855 C 364.604 290.101,365.080 289.485,365.579 288.486 C 366.078 287.486,366.396 286.579,366.287 286.469 C 366.177 286.359,365.962 286.678,365.810 287.178 M34.896 289.450 C 35.361 290.308,35.885 291.011,36.060 291.012 C 36.235 291.014,35.983 290.313,35.500 289.453 C 35.017 288.594,34.493 287.891,34.336 287.891 C 34.178 287.891,34.430 288.592,34.896 289.450 M144.851 290.527 C 150.076 290.589,158.514 290.589,163.601 290.527 C 168.689 290.465,164.414 290.415,154.102 290.415 C 143.789 290.415,139.626 290.466,144.851 290.527 M362.232 293.652 C 362.098 294.028,361.915 294.512,361.825 294.727 C 361.735 294.941,361.938 294.776,362.276 294.359 C 362.890 293.602,363.075 292.969,362.683 292.969 C 362.569 292.969,362.366 293.276,362.232 293.652 M37.518 294.174 C 37.758 294.622,38.032 294.911,38.127 294.816 C 38.400 294.543,37.846 293.359,37.444 293.359 C 37.245 293.359,37.278 293.726,37.518 294.174 M41.016 300.000 C 41.246 300.430,41.605 300.781,41.814 300.781 C 42.025 300.781,41.976 300.433,41.706 300.000 C 41.438 299.570,41.079 299.219,40.908 299.219 C 40.737 299.219,40.786 299.570,41.016 300.000 M354.297 306.055 C 354.021 306.387,353.883 306.747,353.990 306.855 C 354.098 306.962,354.411 306.778,354.688 306.445 C 354.964 306.113,355.102 305.753,354.994 305.645 C 354.887 305.538,354.573 305.722,354.297 306.055 M348.487 314.106 C 348.287 314.619,347.579 315.642,346.913 316.379 C 345.560 317.877,345.305 318.450,346.454 317.410 C 347.590 316.382,349.368 313.690,349.092 313.415 C 348.959 313.282,348.686 313.593,348.487 314.106 M51.780 315.303 C 52.197 315.789,52.760 316.426,53.030 316.718 C 53.300 317.010,53.710 317.601,53.940 318.033 C 54.171 318.464,54.458 318.719,54.578 318.599 C 54.864 318.313,52.311 314.942,51.584 314.648 C 51.217 314.499,51.285 314.727,51.780 315.303 M340.234 324.219 C 339.697 324.639,339.450 324.987,339.686 324.991 C 339.921 324.996,340.431 324.648,340.820 324.219 C 341.711 323.235,341.493 323.235,340.234 324.219 M63.575 328.715 C 63.806 329.143,64.561 330.020,65.251 330.664 C 66.110 331.465,66.376 331.589,66.091 331.055 C 65.862 330.625,65.107 329.748,64.414 329.106 C 63.562 328.316,63.290 328.190,63.575 328.715 M335.414 329.228 C 335.058 329.622,334.766 330.095,334.766 330.280 C 334.766 330.465,335.135 330.220,335.586 329.735 C 336.037 329.251,336.329 328.777,336.235 328.683 C 336.140 328.588,335.771 328.833,335.414 329.228 M330.811 333.984 C 329.871 334.844,329.286 335.547,329.511 335.547 C 329.736 335.547,330.606 334.844,331.445 333.984 C 332.284 333.125,332.870 332.422,332.746 332.422 C 332.622 332.422,331.751 333.125,330.811 333.984 M68.251 333.623 C 68.728 334.120,69.217 334.429,69.337 334.309 C 69.457 334.188,69.067 333.782,68.469 333.404 L 67.383 332.718 68.251 333.623 M70.687 335.862 C 71.172 336.573,71.673 337.051,71.799 336.925 C 71.926 336.798,71.528 336.217,70.917 335.633 L 69.805 334.570 70.687 335.862 M324.567 339.941 C 324.247 340.210,323.737 340.781,323.433 341.211 C 323.130 341.641,323.446 341.476,324.136 340.845 C 324.826 340.214,325.391 339.643,325.391 339.575 C 325.391 339.346,325.150 339.453,324.567 339.941 M78.514 343.163 C 79.018 343.699,79.501 344.067,79.587 343.981 C 79.816 343.751,78.407 342.188,77.970 342.188 C 77.766 342.188,78.010 342.626,78.514 343.163 M80.627 344.865 C 81.454 345.796,81.641 345.881,81.641 345.326 C 81.641 345.119,81.245 344.742,80.762 344.488 C 79.888 344.029,79.887 344.031,80.627 344.865 M318.557 344.919 C 318.167 345.350,318.029 345.703,318.251 345.703 C 318.743 345.703,319.717 344.587,319.454 344.324 C 319.351 344.221,318.947 344.488,318.557 344.919 M315.240 347.638 C 314.706 348.048,314.355 348.468,314.459 348.571 C 314.563 348.674,315.176 348.335,315.820 347.818 C 317.200 346.713,316.662 346.546,315.240 347.638 M86.223 349.219 C 86.591 349.648,87.027 350.000,87.192 350.000 C 87.357 350.000,87.191 349.648,86.823 349.219 C 86.456 348.789,86.020 348.438,85.855 348.438 C 85.690 348.438,85.856 348.789,86.223 349.219 M96.484 356.660 C 97.922 357.636,98.646 357.868,97.711 357.053 C 97.203 356.611,96.588 356.253,96.343 356.256 C 96.099 356.259,96.162 356.441,96.484 356.660 M301.730 357.199 C 301.316 357.501,301.066 357.837,301.173 357.944 C 301.281 358.051,301.707 357.892,302.121 357.589 C 302.534 357.287,302.785 356.951,302.677 356.844 C 302.570 356.737,302.144 356.896,301.730 357.199 M248.926 380.744 C 248.442 380.838,248.047 381.061,248.047 381.241 C 248.047 381.644,249.541 381.285,249.834 380.812 C 249.951 380.623,249.992 380.493,249.925 380.522 C 249.859 380.551,249.409 380.651,248.926 380.744 M154.492 381.952 C 154.707 382.154,155.498 382.427,156.250 382.559 C 157.844 382.839,157.065 382.282,155.273 381.861 C 154.538 381.688,154.247 381.722,154.492 381.952 M182.755 386.818 C 182.952 387.014,183.529 387.110,184.037 387.030 C 184.819 386.907,184.764 386.852,183.679 386.672 C 182.903 386.544,182.538 386.601,182.755 386.818 M216.211 386.719 L 215.039 387.017 216.090 387.063 C 216.668 387.089,217.250 386.934,217.383 386.719 C 217.516 386.504,217.570 386.349,217.504 386.374 C 217.437 386.400,216.855 386.555,216.211 386.719 M196.191 387.389 C 196.782 387.479,197.749 387.479,198.340 387.389 C 198.931 387.300,198.447 387.226,197.266 387.226 C 196.084 387.226,195.601 387.300,196.191 387.389 " stroke="none" fill="#dc145c" fill-rule="evenodd"></path><path id="path2" d="" stroke="none" fill="#e01464" fill-rule="evenodd"></path><path id="path3" d="" stroke="none" fill="#e01464" fill-rule="evenodd"></path><path id="path4" d="" stroke="none" fill="#e01464" fill-rule="evenodd"></path></g></svg>